<?xml version="1.0" encoding="UTF-8" standalone="no"?>
<svg width="62px" height="62px" viewBox="0 0 62 62" version="1.1" xmlns="http://www.w3.org/2000/svg" xmlns:xlink="http://www.w3.org/1999/xlink">
    <!-- Generator: Sketch 39.1 (31720) - http://www.bohemiancoding.com/sketch -->
    <title>asset/svg/bike</title>
    <desc>Created with Sketch.</desc>
    <defs></defs>
    <g id="About/autobiography" stroke="none" stroke-width="1" fill="none" fill-rule="evenodd">
        <g transform="translate(-1350.000000, -227.000000)" id="asset/svg/bike">
            <g transform="translate(1351.000000, 228.000000)">
                <circle id="Oval-2" stroke="#979797" stroke-width="2" cx="30" cy="30" r="30"></circle>
                <path d="M43.5843625,26.1409497 C43.0825167,26.1409497 42.5907937,26.1853666 42.1128667,26.2701626 L41.0802396,22.7052331 L40.2703167,19.7948028 L43.5843625,19.7948028 C44.5353792,19.7948028 44.9611687,20.355802 44.9611687,20.9116866 C44.9611687,21.22763 44.8230313,21.5248196 44.5721979,21.74834 C44.2295417,22.0537849 43.6966104,22.215301 43.0310958,22.215301 L43.0310958,24.0099243 C44.4354042,24.0099243 45.292,23.5090449 45.7632979,23.0889236 C46.3921729,22.5282833 46.7528354,21.7347008 46.7528354,20.9115969 C46.7528354,20.1397294 46.4502229,19.4182011 45.9007188,18.8798141 C45.3133208,18.3042784 44.5122667,18 43.5843625,18 L37.9108708,18 L39.0378292,22.0495675 L25.5575083,22.0495675 L25.1031417,20.8292236 L28.088775,20.8292236 L28.088775,19.0346003 L20.873375,19.0346003 L20.873375,20.8292236 L23.1908958,20.8292236 L23.9386479,22.8375866 L21.2137917,27.049388 C20.0721417,26.4685582 18.7815146,26.1406805 17.4157271,26.1406805 C12.7753104,26.1409497 9,29.9224005 9,34.5703851 C9,39.2183698 12.7753104,42.9999103 17.4156375,42.9999103 C21.7533521,42.9999103 25.3347146,39.6953806 25.7834375,35.4676968 L26.901975,35.4676968 C27.2712375,36.5055274 28.2617604,37.250655 29.4231188,37.250655 C30.8985562,37.250655 32.0988833,36.0483472 32.0988833,34.5703851 C32.0988833,34.0618786 31.9567146,33.5859445 31.7101812,33.1804494 L39.7911354,24.694932 L40.3925979,26.7713112 C37.3304604,28.0332903 35.1688146,31.0534618 35.1688146,34.5704749 C35.1688146,39.2185492 38.9440354,43 43.5843625,43 C48.2246896,43 52,39.2184595 52,34.5703851 C52,29.9223108 48.2246896,26.1409497 43.5843625,26.1409497 L43.5843625,26.1409497 Z M38.1248854,23.8443703 L30.3159958,32.0441836 C30.0365854,31.9448512 29.7361229,31.8902049 29.4230292,31.8902049 C29.3561104,31.8902049 29.2899083,31.893525 29.2241542,31.8983705 L26.2255312,23.8443703 L38.1248854,23.8443703 L38.1248854,23.8443703 Z M24.7183812,24.9323606 L27.5831667,32.6269875 C27.2805542,32.9145759 27.0446812,33.271706 26.9018854,33.6730735 L25.7834375,33.6730735 C25.5423687,31.4016188 24.3969562,29.3970245 22.7157458,28.0279064 L24.7183812,24.9323606 L24.7183812,24.9323606 Z M23.9772583,33.6730735 L19.0637021,33.6730735 L21.7339125,29.5456193 C22.9302083,30.5786045 23.7544646,32.0309034 23.9772583,33.6730735 L23.9772583,33.6730735 Z M17.4156375,41.2053767 C13.7631458,41.2053767 10.7916667,38.2289042 10.7916667,34.5703851 C10.7916667,30.911866 13.7631458,27.935573 17.4156375,27.935573 C18.422375,27.935573 19.3767958,28.1626826 20.2320479,28.5669215 L15.7675729,35.4676968 L23.9771688,35.4676968 C23.5383896,38.7031334 20.7640833,41.2053767 17.4156375,41.2053767 L17.4156375,41.2053767 Z M29.4231188,35.4560317 C28.9356062,35.4560317 28.5389313,35.0587021 28.5389313,34.5703851 C28.5389313,34.0821579 28.9356062,33.6848283 29.4231188,33.6848283 C29.9105417,33.6848283 30.3072167,34.0821579 30.3072167,34.5703851 C30.3072167,35.0587919 29.9105417,35.4560317 29.4231188,35.4560317 L29.4231188,35.4560317 Z M43.5843625,41.2053767 C39.9319604,41.2053767 36.9604813,38.2289042 36.9604813,34.5704749 C36.9604813,31.8705538 38.5797896,29.543735 40.8958771,28.5089552 L42.7240938,34.8204659 L44.4447208,34.3204838 L42.6160562,28.0072682 C42.9322854,27.960608 43.2554125,27.9356628 43.5844521,27.9356628 C47.2369437,27.9356628 50.2084229,30.9120455 50.2084229,34.5704749 C50.2084229,38.2289042 47.2368542,41.2053767 43.5843625,41.2053767 L43.5843625,41.2053767 Z" id="Shape" fill="#808080"></path>
            </g>
        </g>
    </g>
</svg>