<?xml version="1.0" encoding="UTF-8" standalone="no"?>
<svg width="62px" height="62px" viewBox="0 0 62 62" version="1.1" xmlns="http://www.w3.org/2000/svg" xmlns:xlink="http://www.w3.org/1999/xlink">
    <!-- Generator: Sketch 39.1 (31720) - http://www.bohemiancoding.com/sketch -->
    <title>asset/svg/camera</title>
    <desc>Created with Sketch.</desc>
    <defs></defs>
    <g id="About/autobiography" stroke="none" stroke-width="1" fill="none" fill-rule="evenodd">
        <g transform="translate(-1350.000000, -303.000000)" id="asset/svg/camera">
            <g transform="translate(1351.000000, 304.000000)">
                <circle id="Oval-2" stroke="#979797" stroke-width="2" cx="30" cy="30" r="30"></circle>
                <g id="Group" transform="translate(13.000000, 16.000000)" fill="#808080">
                    <circle id="Oval" cx="17.017" cy="15.0329756" r="3.94441463"></circle>
                    <path d="M32.2494146,2.98536585 L32.2494146,2.97002439 L25.3387073,2.97002439 L25.3387073,1.81236585 C25.3387073,0.959878049 24.6475122,0.269097561 23.795439,0.269097561 L10.204561,0.269097561 C9.35207317,0.269097561 8.66087805,0.959878049 8.66087805,1.81236585 L8.66087805,2.97002439 L1.75017073,2.97002439 L1.75017073,2.98536585 C0.897682927,2.98536585 0.207317073,3.67614634 0.207317073,4.52863415 L0.207317073,25.5377317 C0.207317073,26.3902195 0.897682927,27.081 1.75017073,27.081 L1.75017073,27.0963415 L32.2494146,27.0963415 L32.2494146,27.081 C33.1014878,27.081 33.7926829,26.3898049 33.7926829,25.5377317 L33.7926829,4.52863415 C33.7926829,3.67614634 33.1014878,2.98536585 32.2494146,2.98536585 L32.2494146,2.98536585 Z M17.1024146,23.0296098 C12.6861463,23.0296098 9.10578049,19.4496585 9.10578049,15.0329756 C9.10578049,10.6167073 12.6861463,7.03634146 17.1024146,7.03634146 C21.5190976,7.03634146 25.0994634,10.6167073 25.0994634,15.0329756 C25.099878,19.4496585 21.5190976,23.0296098 17.1024146,23.0296098 L17.1024146,23.0296098 Z M31.7249024,9.18207317 L25.6131951,9.18207317 L25.6131951,5.05356098 L31.7244878,5.05356098 L31.7244878,9.18207317 L31.7249024,9.18207317 Z" id="Shape"></path>
                </g>
            </g>
        </g>
    </g>
</svg>