<?xml version="1.0" standalone="no"?>
<!DOCTYPE svg PUBLIC "-//W3C//DTD SVG 20010904//EN"
 "http://www.w3.org/TR/2001/REC-SVG-20010904/DTD/svg10.dtd">
<svg version="1.0" xmlns="http://www.w3.org/2000/svg"
 width="18pt" height="18pt" viewBox="0 0 18 18"
 preserveAspectRatio="xMidYMid meet">

<g transform="translate(0,18) scale(0.100000,-0.100000)"
fill="#000000" stroke="none">
<path d="M46 128 c-20 -29 -20 -58 0 -86 13 -19 24 -22 57 -20 31 2 43 8 45
21 3 16 -1 18 -25 13 -15 -3 -35 -2 -43 4 -11 7 -2 10 33 10 38 0 47 3 47 18
0 34 -29 62 -65 62 -24 0 -39 -7 -49 -22z m69 -18 c4 -6 -6 -10 -22 -10 -22 0
-25 2 -13 10 19 12 27 12 35 0z"/>
</g>
</svg>
