<svg width="30" height="30" viewBox="0 0 30 30" xmlns="http://www.w3.org/2000/svg"><title>asset/svg/linkin</title><path d="M27.778 0H2.215C.992 0 0 .969 0 2.162v25.673C0 29.03.992 30 2.215 30h25.563C29 30 30 29.03 30 27.835V2.162C30 .969 29.001 0 27.778 0zM8.898 25.564H4.446V11.248h4.452v14.316zM6.672 9.29a2.58 2.58 0 1 1 0-5.158 2.58 2.58 0 0 1 0 5.158zm18.89 16.274h-4.444v-6.962c0-1.66-.033-3.796-2.313-3.796-2.316 0-2.669 1.809-2.669 3.676v7.083h-4.448V11.248h4.27v1.955h.06c.594-1.125 2.046-2.312 4.21-2.312 4.503 0 5.335 2.964 5.335 6.82v7.853z" fill="#DDD" fill-rule="evenodd"/></svg>