<?xml version="1.0" encoding="UTF-8" standalone="no"?>
<svg width="35px" height="33px" viewBox="0 0 35 33" version="1.1" xmlns="http://www.w3.org/2000/svg" xmlns:xlink="http://www.w3.org/1999/xlink">
    <!-- Generator: Sketch 39.1 (31720) - http://www.bohemiancoding.com/sketch -->
    <title>asset/svg/logo</title>
    <desc>Created with Sketch.</desc>
    <defs>
        <polygon id="path-1" points="6.6844052 32.8446262 8.75 20.9613288 0 12.5455309 12.0922026 10.8117811 17.5 0 22.9077974 10.8117811 35 12.5455309 26.25 20.9613288 28.3155948 32.8446262 17.5 27.2340942"></polygon>
    </defs>
    <g id="Symbols" stroke="none" stroke-width="1" fill="none" fill-rule="evenodd">
        <g id="MENU" transform="translate(-20.000000, -11.000000)">
            <g id="logo">
                <g transform="translate(20.000000, 11.000000)">
                    <g id="e">
                        <g>
                            <mask id="mask-2" fill="white">
                                <use xlink:href="#path-1"></use>
                            </mask>
                            <use id="Mask" fill="#4A4A4A" xlink:href="#path-1"></use>
                            <path d="M19.8971354,18.8592842 L15.0299479,18.8592842 C15.0360243,19.4168814 15.1499555,19.9085189 15.3717448,20.3342115 C15.5935341,20.759904 15.888236,21.0806675 16.2558594,21.2965116 C16.6234827,21.5123557 17.0290776,21.6202762 17.4726562,21.6202762 C17.7704008,21.6202762 18.0423165,21.5858016 18.2884115,21.5168514 C18.5345064,21.4479012 18.7730023,21.3399807 19.0039062,21.1930868 C19.2348102,21.0461929 19.4474817,20.888809 19.6419271,20.7209302 C19.8363725,20.5530515 20.0885401,20.3252195 20.3984375,20.0374273 C20.5260423,19.9295053 20.7083321,19.8755451 20.9453125,19.8755451 C21.2005221,19.8755451 21.4071173,19.9444942 21.5651042,20.0823946 C21.7230911,20.220295 21.8020833,20.4151514 21.8020833,20.6669695 C21.8020833,20.8888092 21.7139766,21.1481181 21.5377604,21.4449037 C21.3615443,21.7416893 21.0957049,22.0264794 20.7402344,22.2992823 C20.3847638,22.5720853 19.9381537,22.7984184 19.4003906,22.9782885 C18.8626275,23.1581586 18.2443611,23.2480923 17.5455729,23.2480923 C15.9474746,23.2480923 14.7048655,22.7984238 13.8177083,21.8990734 C12.9305511,20.999723 12.4869792,19.7796225 12.4869792,18.2387355 C12.4869792,17.5132595 12.5963531,16.8402556 12.8151042,16.2197039 C13.0338553,15.5991521 13.3528625,15.0670444 13.7721354,14.6233648 C14.1914083,14.1796853 14.7078962,13.8394361 15.3216146,13.6026072 C15.9353329,13.3657782 16.6158817,13.2473656 17.3632812,13.2473656 C18.3355083,13.2473656 19.1694844,13.4497164 19.8652344,13.8544241 C20.5609844,14.2591317 21.0820295,14.7822461 21.4283854,15.4237827 C21.7747413,16.0653193 21.9479167,16.7188375 21.9479167,17.3843568 C21.9479167,18.0019108 21.768665,18.4021157 21.4101562,18.5849836 C21.0516475,18.7678516 20.5473123,18.8592842 19.8971354,18.8592842 L19.8971354,18.8592842 L19.8971354,18.8592842 L19.8971354,18.8592842 L19.8971354,18.8592842 Z M15.0299479,17.465298 L19.5416667,17.465298 C19.4809025,16.6259042 19.2515211,15.9978673 18.8535156,15.5811682 C18.4555102,15.1644692 17.9314269,14.9561228 17.28125,14.9561228 C16.6614552,14.9561228 16.1525628,15.167467 15.7545573,15.5901617 C15.3565518,16.0128564 15.1150178,16.6378956 15.0299479,17.465298 L15.0299479,17.465298 L15.0299479,17.465298 L15.0299479,17.465298 L15.0299479,17.465298 Z" fill="#FFFFFF" mask="url(#mask-2)"></path>
                        </g>
                    </g>
                </g>
            </g>
        </g>
    </g>
</svg>