<svg width="45" height="43" viewBox="0 0 45 43" xmlns="http://www.w3.org/2000/svg"><title>asset/svg/logo</title><path d="M22.5 35.487l-13.906 7.31 2.656-15.484L0 16.347l15.547-2.259L22.5 0l6.953 14.088L45 16.348 33.75 27.312l2.656 15.485L22.5 35.487zm2.445-15.47h-4.446v2.448h1.683v-.115c0-.363.08-.634.239-.813.159-.178.401-.267.726-.267.287 0 .521.08.703.243a.792.792 0 0 1 .272.617c0 .013.004.054.01.124s.01.14.01.21v1.98c0 .427-.077.733-.23.917-.153.185-.401.278-.746.278-.325 0-.57-.086-.736-.259-.166-.172-.248-.427-.248-.764v-.172h-1.683v2.858h4.446v-1.138c0-.427.08-.733.243-.917.163-.185.429-.278.799-.278.363 0 .623.091.779.273.156.182.234.489.234.922v2.314c0 .344-.067.574-.2.688-.135.115-.4.172-.794.172h-7.83c-.42 0-.722-.082-.904-.248-.181-.166-.272-.437-.272-.813 0-.338.086-.594.258-.77.172-.175.424-.262.755-.262h.163v-7.132h-.163c-.325 0-.575-.091-.75-.273-.175-.181-.263-.441-.263-.779 0-.37.092-.639.277-.808.185-.169.485-.253.899-.253h7.83c.389 0 .651.059.788.177s.206.352.206.703v2.141c0 .433-.08.744-.239.932-.16.188-.417.282-.774.282-.37 0-.636-.095-.799-.287-.162-.19-.243-.5-.243-.927v-1.004z" fill="#4A4A4A" fill-rule="evenodd"/></svg>