<?xml version="1.0" encoding="UTF-8" standalone="no"?>
<svg width="62px" height="62px" viewBox="0 0 62 62" version="1.1" xmlns="http://www.w3.org/2000/svg" xmlns:xlink="http://www.w3.org/1999/xlink">
    <!-- Generator: Sketch 39.1 (31720) - http://www.bohemiancoding.com/sketch -->
    <title>asset/svg/backpack</title>
    <desc>Created with Sketch.</desc>
    <defs>
        <path d="M37.9060123,48.8272615 L22.1182822,48.8272615 C20.1334969,48.8272615 18.4720859,47.4105231 18.0866871,45.5322462 L17.3335583,45.5322462 C16.0963804,45.5322462 15.090184,44.5227692 15.090184,43.2819692 L15.090184,36.1373538 C15.090184,34.8965538 16.0965644,33.8870769 17.3335583,33.8870769 L18.0023926,33.8870769 L18.0023926,26.6388923 C17.1594479,26.3187692 16.5585276,25.5005538 16.5585276,24.5442462 L16.5585276,18.2870769 C16.5585276,17.0525538 17.5597546,16.0482462 18.7904908,16.0482462 L20.5860736,16.0482462 L20.5860736,15.3293538 C20.5860736,14.3283692 21.3979141,13.5140308 22.3960123,13.5140308 L25.6026994,13.5140308 C26.6006135,13.5140308 27.412454,14.3283692 27.412454,15.3293538 L27.412454,16.0482462 L32.3328221,16.0482462 L32.3328221,13.8153231 C32.3328221,12.8143385 33.1446626,12 34.1425767,12 L37.3492638,12 C38.347362,12 39.1592025,12.8143385 39.1592025,13.8153231 L39.1592025,16.0482462 L41.2338037,16.0482462 C42.4645399,16.0482462 43.4657669,17.0525538 43.4657669,18.2870769 L43.4657669,24.5442462 C43.4657669,25.5005538 42.8648466,26.3187692 42.0219018,26.6388923 L42.0219018,33.8870769 L42.7551534,33.8870769 C43.9923313,33.8870769 44.9985276,34.8965538 44.9985276,36.1373538 L44.9985276,43.2819692 C44.9985276,44.5227692 43.9921472,45.5322462 42.7551534,45.5322462 L41.9376074,45.5322462 C41.5520245,47.4105231 39.8907975,48.8272615 37.9060123,48.8272615 L37.9060123,48.8272615 Z M18.9592638,45.1857231 C19.1939264,46.7230154 20.5211043,47.9041846 22.1180982,47.9041846 L37.9058282,47.9041846 C39.6679141,47.9041846 41.1014724,46.4660308 41.1014724,44.6985231 L41.1014724,26.7830769 L32.0469939,26.7830769 L32.0469939,27.7368 C32.0469939,28.8079385 31.1780982,29.6793231 30.1104294,29.6793231 L29.913681,29.6793231 C28.8458282,29.6793231 27.9771166,28.8079385 27.9771166,27.7368 L27.9771166,26.7830769 L18.922454,26.7830769 L18.922454,34.1368615 C18.9552147,34.2003692 18.9736196,34.2723692 18.9736196,34.3486154 L18.9736196,45.0708923 C18.9736196,45.1104 18.9686503,45.1489846 18.9592638,45.1857231 L18.9592638,45.1857231 Z M42.0351534,44.6091692 L42.7551534,44.6091692 C43.4847239,44.6091692 44.0782822,44.0137846 44.0782822,43.2819692 L44.0782822,36.1373538 C44.0782822,35.4055385 43.4845399,34.8101538 42.7551534,34.8101538 L42.0351534,34.8101538 L42.0351534,44.6091692 L42.0351534,44.6091692 Z M17.3333742,34.8101538 C16.6038037,34.8101538 16.0102454,35.4055385 16.0102454,36.1373538 L16.0102454,43.2819692 C16.0102454,44.0137846 16.6039877,44.6091692 17.3333742,44.6091692 L18.0022086,44.6091692 L18.0022086,34.8099692 L17.3333742,34.8099692 L17.3333742,34.8101538 Z M28.8971779,26.5489846 L28.8971779,27.7368 C28.8971779,28.2989538 29.3532515,28.7562462 29.9134969,28.7562462 L30.1102454,28.7562462 C30.6706748,28.7562462 31.1265644,28.2987692 31.1265644,27.7368 L31.1265644,26.5489846 L30.4719018,26.5489846 L30.4719018,27.1735385 C30.4719018,27.4284923 30.2659509,27.6350769 30.0117791,27.6350769 C29.7576074,27.6350769 29.5516564,27.4284923 29.5516564,27.1735385 L29.5516564,26.5489846 L28.8971779,26.5489846 L28.8971779,26.5489846 Z M32.0471779,25.86 L41.2338037,25.86 C41.9571166,25.86 42.5455215,25.2697846 42.5455215,24.5442462 L42.5455215,18.2870769 C42.5455215,17.5615385 41.9571166,16.9713231 41.2338037,16.9713231 L18.7903067,16.9713231 C18.0669939,16.9713231 17.478589,17.5615385 17.478589,18.2870769 L17.478589,24.5442462 C17.478589,25.2697846 18.0669939,25.86 18.7903067,25.86 L27.9769325,25.86 L27.9769325,24.9062769 C27.9769325,23.8351385 28.8458282,22.9637538 29.9134969,22.9637538 L30.1102454,22.9637538 C31.1780982,22.9637538 32.0468098,23.8351385 32.0468098,24.9062769 L32.0468098,25.86 L32.0471779,25.86 Z M31.1269325,25.8461538 L31.1269325,24.9051596 C31.1269325,24.3436219 30.6708589,23.8868308 30.1106135,23.8868308 L29.913865,23.8868308 C29.3534356,23.8868308 28.897546,24.3438063 28.897546,24.9051596 L28.897546,25.8461538 L30.0121472,25.8461538 L31.1269325,25.8461538 Z M33.2528834,16.0482462 L38.238773,16.0482462 L38.238773,13.8153231 C38.238773,13.3233231 37.8395706,12.9230769 37.3490798,12.9230769 L34.1423926,12.9230769 C33.6519018,12.9230769 33.2528834,13.3233231 33.2528834,13.8153231 L33.2528834,16.0482462 L33.2528834,16.0482462 Z M21.506135,16.0482462 L26.4920245,16.0482462 L26.4920245,15.3293538 C26.4920245,14.8373538 26.0930061,14.4371077 25.6025153,14.4371077 L22.3958282,14.4371077 C21.9053374,14.4371077 21.506135,14.8373538 21.506135,15.3293538 L21.506135,16.0482462 L21.506135,16.0482462 Z M34.9214724,46.0240615 L25.102638,46.0240615 C23.7835583,46.0240615 22.7105521,44.9477538 22.7105521,43.6248 L22.7105521,34.3846154 C22.7105521,32.8973538 23.9168098,31.6873846 25.3995092,31.6873846 L34.6244172,31.6873846 C36.1073006,31.6873846 37.3133742,32.8973538 37.3133742,34.3846154 L37.3133742,43.6248 C37.3135583,44.9477538 36.2405521,46.0240615 34.9214724,46.0240615 L34.9214724,46.0240615 Z M23.6307975,37.6678154 L23.6307975,43.6248 C23.6307975,44.4387692 24.2911656,45.1009846 25.102638,45.1009846 L34.9214724,45.1009846 C35.7329448,45.1009846 36.3933129,44.4387692 36.3933129,43.6248 L36.3933129,37.6678154 L23.6307975,37.6678154 L23.6307975,37.6678154 Z M23.6307975,36.7447385 L36.3933129,36.7447385 L36.3933129,34.3846154 C36.3933129,33.4063385 35.5996933,32.6104615 34.6246012,32.6104615 L25.3995092,32.6104615 C24.4242331,32.6104615 23.6307975,33.4063385 23.6307975,34.3846154 L23.6307975,36.7447385 L23.6307975,36.7447385 Z" id="path-1"></path>
        <mask id="mask-2" maskContentUnits="userSpaceOnUse" maskUnits="objectBoundingBox" x="-0.4" y="-0.4" width="30.7083436" height="37.6272615">
            <rect x="14.690184" y="11.6" width="30.7083436" height="37.6272615" fill="white"></rect>
            <use xlink:href="#path-1" fill="black"></use>
        </mask>
    </defs>
    <g id="About/autobiography" stroke="none" stroke-width="1" fill="none" fill-rule="evenodd">
        <g transform="translate(-1350.000000, -151.000000)" id="asset/svg/backpack">
            <g transform="translate(1351.000000, 152.000000)">
                <g id="Shape">
                    <use fill="#808080" fill-rule="evenodd" xlink:href="#path-1"></use>
                    <use stroke="#808080" mask="url(#mask-2)" stroke-width="0.8" xlink:href="#path-1"></use>
                </g>
                <circle id="Oval-2" stroke="#979797" stroke-width="2" cx="30" cy="30" r="30"></circle>
            </g>
        </g>
    </g>
</svg>