<?xml version="1.0" encoding="utf-8"?>
<!-- Generator: Adobe Illustrator 16.0.0, SVG Export Plug-In . SVG Version: 6.00 Build 0)  -->
<!DOCTYPE svg PUBLIC "-//W3C//DTD SVG 1.1//EN" "http://www.w3.org/Graphics/SVG/1.1/DTD/svg11.dtd">
<svg version="1.1" id="圖層_1" xmlns="http://www.w3.org/2000/svg" xmlns:xlink="http://www.w3.org/1999/xlink" x="0px" y="0px"
	 width="62px" height="62px" viewBox="0 0 62 62" enable-background="new 0 0 62 62" xml:space="preserve">
<title>asset/svg/backpack</title>
<desc>Created with Sketch.</desc>
<g transform="translate(1351.000000, 152.000000)">
	<circle id="Oval-2" fill="#262626" cx="-1320" cy="-121" r="31"/>
	<g>
		<path fill="#FFFFFF" stroke="#FFFFFF" stroke-miterlimit="10" d="M-1304.705-116.822h-0.884v-8.719
			c1.015-0.385,1.738-1.37,1.738-2.52v-7.529c0-1.484-1.205-2.693-2.685-2.693h-2.497v-2.687c0-1.205-0.978-2.185-2.178-2.185
			h-3.858c-1.201,0-2.179,0.98-2.179,2.185v2.687h-5.919v-0.865c0-1.205-0.977-2.185-2.178-2.185h-3.858
			c-1.201,0-2.178,0.98-2.178,2.185v0.865h-2.161c-1.48,0-2.686,1.209-2.686,2.693v7.529c0,1.15,0.723,2.135,1.738,2.52v8.719
			h-0.805c-1.488,0-2.699,1.216-2.699,2.708v8.596c0,1.496,1.21,2.71,2.699,2.71h0.906c0.464,2.259,2.463,3.964,4.852,3.964h18.996
			c2.388,0,4.387-1.705,4.851-3.964h0.984c1.487,0,2.697-1.214,2.697-2.71v-8.596
			C-1302.008-115.606-1303.218-116.822-1304.705-116.822z M-1334.488-103.919h-0.805c-0.878,0-1.592-0.718-1.592-1.6v-8.596
			c0-0.878,0.714-1.596,1.592-1.596h0.805V-103.919z M-1316.139-140.971c0-0.593,0.48-1.073,1.07-1.073h3.858
			c0.59,0,1.069,0.48,1.069,1.073v2.687h-5.998V-140.971z M-1330.272-139.149c0-0.592,0.48-1.074,1.07-1.074h3.858
			c0.59,0,1.07,0.482,1.07,1.074v0.865h-5.999V-139.149z M-1306.695-103.812c0,2.126-1.725,3.856-3.845,3.856h-18.996
			c-1.922,0-3.519-1.422-3.801-3.271c0.011-0.044,0.017-0.091,0.017-0.139v-12.9c0-0.091-0.022-0.179-0.062-0.255v-8.848h10.895
			v1.147c0,1.289,1.045,2.337,2.331,2.337h0.236c1.284,0,2.33-1.048,2.33-2.337v-1.147h10.895V-103.812z M-1320.593-125.65v0.751
			c0,0.307,0.249,0.556,0.554,0.556c0.306,0,0.555-0.249,0.555-0.556v-0.751h0.787v1.429c0,0.676-0.55,1.227-1.223,1.227h-0.236
			c-0.675,0-1.224-0.551-1.224-1.227v-1.429H-1320.593z M-1321.379-126.496v-1.131c0-0.676,0.548-1.226,1.223-1.226h0.237
			c0.673,0,1.222,0.55,1.222,1.226v1.131h-1.342H-1321.379z M-1306.535-126.479h-11.055v-1.148c0-1.289-1.046-2.337-2.33-2.337
			h-0.236c-1.286,0-2.331,1.048-2.331,2.337v1.148h-11.053c-0.871,0-1.579-0.71-1.579-1.583v-7.529c0-0.873,0.708-1.583,1.579-1.583
			h27.005c0.869,0,1.576,0.71,1.576,1.583v7.529C-1304.959-127.189-1305.666-126.479-1306.535-126.479z M-1303.114-105.519
			c0,0.882-0.714,1.6-1.591,1.6h-0.867v-11.791h0.867c0.877,0,1.591,0.718,1.591,1.596V-105.519z"/>
		<path fill="#FFFFFF" stroke="#FFFFFF" stroke-miterlimit="10" d="M-1328.824-116.223v11.119c0,1.59,1.292,2.886,2.879,2.886
			h11.814c1.586,0,2.878-1.296,2.878-2.886v-11.119c0-1.788-1.451-3.245-3.235-3.245h-11.1
			C-1327.373-119.468-1328.824-118.011-1328.824-116.223z M-1312.361-105.104c0,0.979-0.795,1.777-1.77,1.777h-11.814
			c-0.977,0-1.771-0.798-1.771-1.777v-7.168h15.355V-105.104z M-1312.361-116.223v2.839h-15.355v-2.839
			c0-1.178,0.955-2.135,2.128-2.135h11.1C-1313.315-118.357-1312.361-117.4-1312.361-116.223z"/>
	</g>
</g>
</svg>
