<?xml version="1.0" encoding="utf-8"?>
<!-- Generator: Adobe Illustrator 16.0.0, SVG Export Plug-In . SVG Version: 6.00 Build 0)  -->
<!DOCTYPE svg PUBLIC "-//W3C//DTD SVG 1.1//EN" "http://www.w3.org/Graphics/SVG/1.1/DTD/svg11.dtd">
<svg version="1.1" id="圖層_1" xmlns="http://www.w3.org/2000/svg" xmlns:xlink="http://www.w3.org/1999/xlink" x="0px" y="0px"
	 width="62px" height="62px" viewBox="0 0 62 62" enable-background="new 0 0 62 62" xml:space="preserve">
<title>asset/svg/bike</title>
<desc>Created with Sketch.</desc>
<circle id="Oval-2_1_" fill="#262626" cx="31" cy="31" r="31"/>
<g transform="translate(1351.000000, 228.000000)">
	<path id="Shape" fill="#FFFFFF" d="M-1304.881-202.037c-0.58,0-1.148,0.052-1.699,0.149l-1.193-4.119l-0.938-3.363h3.83
		c1.1,0,1.592,0.648,1.592,1.29c0,0.365-0.16,0.709-0.449,0.967c-0.396,0.353-1.012,0.54-1.781,0.54v2.073
		c1.623,0,2.612-0.578,3.157-1.064c0.727-0.647,1.144-1.564,1.144-2.516c0-0.892-0.35-1.726-0.985-2.348
		c-0.678-0.665-1.604-1.017-2.677-1.017h-6.557l1.303,4.679h-15.577l-0.524-1.41h3.45v-2.074h-8.338v2.074h2.678l0.864,2.321
		l-3.148,4.867c-1.319-0.672-2.811-1.05-4.39-1.05c-5.361,0-9.725,4.371-9.725,9.741c0,5.372,4.363,9.741,9.725,9.741
		c5.013,0,9.15-3.819,9.67-8.703h1.292c0.427,1.199,1.571,2.06,2.914,2.06c1.704,0,3.093-1.389,3.093-3.098
		c0-0.586-0.165-1.138-0.449-1.607l9.337-9.804l0.695,2.399c-3.539,1.458-6.037,4.947-6.037,9.012c0,5.372,4.362,9.741,9.725,9.741
		s9.726-4.369,9.726-9.741C-1295.155-197.667-1299.519-202.037-1304.881-202.037L-1304.881-202.037z M-1311.188-204.691
		l-9.024,9.476c-0.323-0.114-0.67-0.178-1.032-0.178c-0.077,0-0.153,0.003-0.229,0.008l-3.465-9.306H-1311.188L-1311.188-204.691z
		 M-1326.682-203.434l3.311,8.891c-0.35,0.333-0.622,0.746-0.787,1.211h-1.292c-0.279-2.625-1.603-4.942-3.545-6.524
		L-1326.682-203.434L-1326.682-203.434z M-1327.538-193.332h-5.677l3.085-4.771C-1328.748-196.91-1327.795-195.23-1327.538-193.332
		L-1327.538-193.332z M-1335.12-184.63c-4.221,0-7.654-3.439-7.654-7.667c0-4.227,3.434-7.667,7.654-7.667
		c1.164,0,2.267,0.262,3.255,0.729l-5.159,7.975h9.486C-1328.045-187.521-1331.251-184.63-1335.12-184.63L-1335.12-184.63z
		 M-1321.244-191.273c-0.563,0-1.021-0.459-1.021-1.023s0.458-1.022,1.021-1.022c0.563,0,1.021,0.458,1.021,1.022
		S-1320.682-191.273-1321.244-191.273L-1321.244-191.273z M-1304.881-184.63c-4.22,0-7.652-3.439-7.652-7.667
		c0-3.119,1.87-5.809,4.547-7.004l2.112,7.293l1.989-0.577l-2.114-7.295c0.364-0.054,0.739-0.083,1.118-0.083
		c4.221,0,7.655,3.44,7.655,7.667C-1297.226-188.069-1300.66-184.63-1304.881-184.63L-1304.881-184.63z"/>
</g>
</svg>
