<?xml version="1.0" encoding="utf-8"?>
<!-- Generator: Adobe Illustrator 16.0.0, SVG Export Plug-In . SVG Version: 6.00 Build 0)  -->
<!DOCTYPE svg PUBLIC "-//W3C//DTD SVG 1.1//EN" "http://www.w3.org/Graphics/SVG/1.1/DTD/svg11.dtd">
<svg version="1.1" id="圖層_1" xmlns="http://www.w3.org/2000/svg" xmlns:xlink="http://www.w3.org/1999/xlink" x="0px" y="0px"
	 width="62px" height="62px" viewBox="0 0 62 62" enable-background="new 0 0 62 62" xml:space="preserve">
<title>asset/svg/camera</title>
<desc>Created with Sketch.</desc>
<circle id="Oval-2" fill="#262626" cx="31" cy="31" r="31"/>
<g id="Group" transform="translate(13.000000, 16.000000)">
	<circle id="Oval" fill="#FFFFFF" cx="18.018" cy="16.482" r="4.33"/>
	<path id="Shape" fill="#FFFFFF" d="M34.738,3.258V3.241h-7.586V1.971c0-0.936-0.758-1.694-1.693-1.694H10.541
		c-0.936,0-1.695,0.758-1.695,1.694v1.271H1.26v0.017c-0.936,0-1.693,0.758-1.693,1.694v23.061c0,0.937,0.758,1.694,1.693,1.694
		v0.017h33.478v-0.017c0.936,0,1.695-0.759,1.695-1.694V4.952C36.434,4.017,35.674,3.258,34.738,3.258L34.738,3.258z M18.112,25.26
		c-4.848,0-8.777-3.931-8.777-8.777c0-4.848,3.93-8.777,8.777-8.777c4.849,0,8.779,3.93,8.779,8.777
		C26.891,21.329,22.961,25.26,18.112,25.26L18.112,25.26z M34.162,10.06h-6.709V5.528h6.709V10.06L34.162,10.06z"/>
</g>
</svg>
