<?xml version="1.0" encoding="UTF-8" standalone="no"?>
<svg width="18px" height="19px" viewBox="0 0 18 19" version="1.1" xmlns="http://www.w3.org/2000/svg" xmlns:xlink="http://www.w3.org/1999/xlink">
    <!-- Generator: Sketch 39.1 (31720) - http://www.bohemiancoding.com/sketch -->
    <title>asset/svg/e</title>
    <desc>Created with Sketch.</desc>
    <defs></defs>
    <g id="Contact" stroke="none" stroke-width="1" fill="none" fill-rule="evenodd">
        <g id="About/autobiography" transform="translate(-434.000000, -1379.000000)" fill="#4A4A4A">
            <path d="M443.099888,1379.256 C440.518883,1379.256 438.47419,1380.11472 436.99933,1381.86517 C435.45743,1383.58261 434.72,1385.69637 434.72,1388.23949 C434.72,1391.07985 435.524469,1393.2927 437.133408,1394.91105 C438.641788,1396.46334 440.68648,1397.256 443.267486,1397.256 C445.580335,1397.256 447.49095,1396.59545 449.032849,1395.30738 C450.239553,1394.2505 451.044022,1392.89637 451.446257,1391.31105 L447.625028,1391.31105 C447.155754,1392.26884 446.652961,1392.96242 446.083128,1393.39178 C445.345698,1393.92022 444.407151,1394.18444 443.233966,1394.18444 C441.859665,1394.18444 440.787039,1393.75508 440.049609,1392.92939 C439.312179,1392.10371 438.876425,1390.88169 438.742346,1389.29637 L451.714413,1389.29637 C451.714413,1386.22481 451.010503,1383.8138 449.636201,1382.09637 C448.127821,1380.18077 445.94905,1379.256 443.099888,1379.256 L443.099888,1379.256 Z M443.200447,1382.32756 C445.882011,1382.32756 447.390391,1383.68169 447.725587,1386.456 L438.809385,1386.456 C439.044022,1385.10187 439.513296,1384.07802 440.217207,1383.38444 C440.954637,1382.65783 441.926704,1382.32756 443.200447,1382.32756 L443.200447,1382.32756 Z" id="asset/svg/e"></path>
        </g>
    </g>
</svg>