<?xml version="1.0" encoding="UTF-8" standalone="no"?>
<svg width="35px" height="35px" viewBox="0 0 35 35" version="1.1" xmlns="http://www.w3.org/2000/svg" xmlns:xlink="http://www.w3.org/1999/xlink">
    <!-- Generator: Sketch 39.1 (31720) - http://www.bohemiancoding.com/sketch -->
    <title>asset/svg/logo</title>
    <desc>Created with Sketch.</desc>
    <defs>
        <circle id="path-1" cx="17.5" cy="17.5" r="17.5"></circle>
        <mask id="mask-2" maskContentUnits="userSpaceOnUse" maskUnits="objectBoundingBox" x="0" y="0" width="35" height="35" fill="white">
            <use xlink:href="#path-1"></use>
        </mask>
    </defs>
    <g id="Symbols" stroke="none" stroke-width="1" fill="none" fill-rule="evenodd">
        <g id="MENU" transform="translate(-23.000000, -13.000000)">
            <g id="logo">
                <g transform="translate(23.000000, 13.000000)">
                    <g>
                        <use id="Oval" stroke="#4A4A4A" mask="url(#mask-2)" stroke-width="6" xlink:href="#path-1"></use>
                        <path d="M20.212844,16.7867647 L15.1266055,16.7867647 C15.1412845,16.5661754 15.1889904,16.3161779 15.2697248,16.0367647 C15.3504591,15.7573515 15.4899073,15.4926483 15.6880734,15.2426471 C15.8862395,14.9926458 16.1504571,14.7830891 16.4807339,14.6139706 C16.8110108,14.4448521 17.2256856,14.3602941 17.7247706,14.3602941 C18.4880772,14.3602941 19.0568789,14.5661744 19.4311927,14.9779412 C19.8055065,15.3897079 20.0660543,15.9926431 20.212844,16.7867647 L20.212844,16.7867647 Z M15.1266055,18.7720588 L23.3394495,18.7720588 C23.3981654,17.8897015 23.3247717,17.0441217 23.1192661,16.2352941 C22.9137604,15.4264665 22.5798188,14.7058855 22.1174312,14.0735294 C21.6550436,13.4411733 21.0642238,12.9375019 20.3449541,12.5625 C19.6256845,12.1874981 18.7816562,12 17.812844,12 C16.9467847,12 16.1578017,12.1544102 15.4458716,12.4632353 C14.7339414,12.7720604 14.1211035,13.1948503 13.6073394,13.7316176 C13.0935754,14.268385 12.6972491,14.9044081 12.4183486,15.6397059 C12.1394481,16.3750037 12,17.1691134 12,18.0220588 C12,18.9044162 12.1357785,19.7132316 12.4073394,20.4485294 C12.6789004,21.1838272 13.0642177,21.8161738 13.5633028,22.3455882 C14.0623878,22.8750026 14.671556,23.2830868 15.3908257,23.5698529 C16.1100953,23.8566191 16.9174267,24 17.812844,24 C19.1045936,24 20.2055,23.7058853 21.1155963,23.1176471 C22.0256926,22.5294088 22.7009152,21.5514774 23.1412844,20.1838235 L20.3889908,20.1838235 C20.286238,20.5367665 20.0073417,20.8713219 19.5522936,21.1875 C19.0972454,21.5036781 18.5541316,21.6617647 17.9229358,21.6617647 C17.0421974,21.6617647 16.3669748,21.4338258 15.8972477,20.9779412 C15.4275206,20.5220565 15.1706424,19.7867698 15.1266055,18.7720588 L15.1266055,18.7720588 Z" id="e" fill="#4A4A4A"></path>
                    </g>
                </g>
            </g>
        </g>
    </g>
</svg>