<?xml version="1.0" encoding="utf-8"?>
<!-- Generator: Adobe Illustrator 16.0.0, SVG Export Plug-In . SVG Version: 6.00 Build 0)  -->
<!DOCTYPE svg PUBLIC "-//W3C//DTD SVG 1.1//EN" "http://www.w3.org/Graphics/SVG/1.1/DTD/svg11.dtd">
<svg version="1.1" id="圖層_1" xmlns="http://www.w3.org/2000/svg" xmlns:xlink="http://www.w3.org/1999/xlink" x="0px" y="0px"
	 width="35px" height="35px" viewBox="0 0 35 35" enable-background="new 0 0 35 35" xml:space="preserve">
<title>asset/svg/logo</title>
<desc>Created with Sketch.</desc>
<g>
	<path fill="#4A4A4A" d="M17.486,11.329c-0.848,0.011-1.549,0.165-2.104,0.46c-0.556,0.295-1,0.657-1.329,1.084
		c-0.332,0.429-0.561,0.881-0.691,1.356c-0.131,0.477-0.206,0.902-0.224,1.276l8.624-0.125c-0.265-1.343-0.724-2.358-1.369-3.047
		C19.75,11.644,18.782,11.31,17.486,11.329z"/>
	<path fill="#4A4A4A" d="M17.5,0C7.834,0,0,7.831,0,17.491c0,9.661,7.834,17.492,17.5,17.492c9.665,0,17.5-7.831,17.5-17.492
		C35,7.831,27.164,0,17.5,0z M27.116,18.675l-13.931,0.198c0.1,1.721,0.554,2.96,1.362,3.727c0.807,0.759,1.958,1.129,3.451,1.107
		c1.072-0.016,1.988-0.298,2.751-0.843c0.767-0.549,1.229-1.123,1.395-1.725l4.67-0.063c-0.715,2.326-1.838,4.004-3.366,5.021
		c-1.529,1.019-3.388,1.549-5.578,1.579c-1.519,0.021-2.893-0.202-4.118-0.671c-1.229-0.47-2.271-1.147-3.131-2.034
		c-0.86-0.886-1.528-1.948-2.006-3.189c-0.478-1.239-0.729-2.606-0.75-4.107c-0.021-1.444,0.196-2.794,0.653-4.048
		c0.454-1.254,1.111-2.343,1.969-3.265c0.857-0.924,1.885-1.656,3.087-2.196c1.2-0.542,2.533-0.823,4.005-0.844
		c1.64-0.023,3.076,0.273,4.311,0.893c1.227,0.62,2.24,1.459,3.042,2.521c0.797,1.062,1.381,2.275,1.749,3.642
		C27.048,15.744,27.195,17.178,27.116,18.675z"/>
</g>
</svg>
